:FULLY-SPECIFIED
:FORCE-ALL-JOINTS-BE-3DOF
:DEGREES
204
root -2.89729 16.3091 -36.1145 3.82678 0.673324 -2.98551
lfemur -23.9222 6.67771 -8.11476
ltibia 48.5698 0 0
lfoot -23.7493 0.432088 0
ltoes -9.7728 0 0
rfemur -23.8351 -7.53522 14.7413
rtibia 50.5698 0 0
rfoot -27.5517 2.03964 0
rtoes -8.4394 0 0
lowerback 7.29688 1.96213 -1.62733
upperback -3.77809 2.55938 1.32839
thorax -8.22032 1.38155 1.94873
lowerneck -3.44674 -3.90483 -6.54531
upperneck 6.91483 -5.26663 5.96233
head 3.25568 -2.59451 2.93834
lclavicle 6.94947e-15 7.74524e-15 0
lhumerus -26.5643 -1.84208 88.7784
lradius 24.3328 0 0
lwrist -31.3678 0 0
lhand -28.2711 30.0671 0
lfingers 7.12502 0 0
lthumb -1.64775 60.0405 0
rclavicle 6.94947e-15 7.74524e-15 0
rhumerus -32.2726 2.0066 -79.9243
rradius 30.5119 0 0
rwrist 3.11649 0 0
rhand -19.8128 -27.022 0
rfingers 7.12502 0 0
rthumb 6.52053 -56.9017 0
205
root -2.89816 16.3068 -36.1133 3.81804 0.675531 -2.98014
lfemur -23.9183 6.68136 -8.1197
ltibia 48.5817 0 0
lfoot -23.7569 0.430017 0
ltoes -9.78402 0 0
rfemur -23.831 -7.53661 14.7337
rtibia 50.5857 0 0
rfoot -27.5614 2.02817 0
rtoes -8.4672 0 0
lowerback 7.29608 1.96398 -1.62826
upperback -3.77443 2.56154 1.32596
thorax -8.21594 1.38251 1.94644
lowerneck -3.44141 -3.90611 -6.54376
upperneck 6.9065 -5.26866 5.96522
head 3.25202 -2.59545 2.93899
lclavicle 7.31027e-15 6.18725e-15 0
lhumerus -26.5618 -1.85767 88.7931
lradius 24.3389 0 0
lwrist -31.3586 0 0
lhand -28.2747 30.0637 0
lfingers 7.12502 0 0
lthumb -1.6512 60.0371 0
rclavicle 7.31027e-15 6.18725e-15 0
rhumerus -32.2782 2.005 -79.9172
rradius 30.5086 0 0
rwrist 3.11509 0 0
rhand -19.8097 -27.0253 0
rfingers 7.12502 0 0
rthumb 6.52354 -56.9048 0
206
root -2.89904 16.3045 -36.1121 3.80704 0.679691 -2.97479
lfemur -23.9164 6.68692 -8.12381
ltibia 48.6021 0 0
lfoot -23.7693 0.42687 0
ltoes -9.79707 0 0
rfemur -23.8273 -7.54034 14.7257
rtibia 50.6097 0 0
rfoot -27.5757 2.01514 0
rtoes -8.49677 0 0
lowerback 7.29632 1.96528 -1.62917
upperback -3.76977 2.56296 1.32358
thorax -8.21103 1.38309 1.94429
lowerneck -3.43624 -3.9078 -6.54282
upperneck 6.89737 -5.27123 5.9692
head 3.24822 -2.59665 2.9401
lclavicle 7.6182e-15 4.55295e-15 0
lhumerus -26.5584 -1.87324 88.8087
lradius 24.3454 0 0
lwrist -31.3484 0 0
lhand -28.278 30.0604 0
lfingers 7.12502 0 0
lthumb -1.65446 60.0338 0
rclavicle 7.6182e-15 4.55295e-15 0
rhumerus -32.2831 2.00261 -79.9094
rradius 30.5044 0 0
rwrist 3.11482 0 0
rhand -19.8068 -27.0284 0
rfingers 7.12502 0 0
rthumb 6.52635 -56.9079 0
207
root -2.89992 16.3022 -36.1109 3.79351 0.686127 -2.96967
lfemur -23.9174 6.69496 -8.1266
ltibia 48.6333 0 0
lfoot -23.7875 0.422471 0
ltoes -9.81258 0 0
rfemur -23.8247 -7.54721 14.7177
rtibia 50.644 0 0
rfoot -27.5958 2.00059 0
rtoes -8.52861 0 0
lowerback 7.29775 1.96594 -1.62999
upperback -3.76391 2.56351 1.32129
thorax -8.20549 1.38323 1.94229
lowerneck -3.43149 -3.90996 -6.54255
upperneck 6.88765 -5.27445 5.97431
head 3.24442 -2.59814 2.9417
lclavicle 7.85176e-15 2.83928e-15 0
lhumerus -26.5536 -1.88876 88.8255
lradius 24.3523 0 0
lwrist -31.3371 0 0
lhand -28.2811 30.0574 0
lfingers 7.12502 0 0
lthumb -1.65746 60.0307 0
rclavicle 7.85176e-15 2.83928e-15 0
rhumerus -32.2871 1.99958 -79.9009
rradius 30.4993 0 0
rwrist 3.11564 0 0
rhand -19.804 -27.0315 0
rfingers 7.12502 0 0
rthumb 6.52901 -56.9109 0
208
root -2.9008 16.3 -36.1097 3.77716 0.695162 -2.96498
lfemur -23.9221 6.70604 -8.12755
ltibia 48.6773 0 0
lfoot -23.8129 0.416642 0
ltoes -9.83117 0 0
rfemur -23.8234 -7.55799 14.71
rtibia 50.6904 0 0
rfoot -27.6228 1.98455 0
rtoes -8.56326 0 0
lowerback 7.3005 1.96587 -1.63063
upperback -3.7567 2.56309 1.31916
thorax -8.1992 1.38288 1.94048
lowerneck -3.42743 -3.91269 -6.54301
upperneck 6.87753 -5.27842 5.98062
head 3.24075 -2.59998 2.9438
lclavicle 7.98943e-15 1.04319e-15 0
lhumerus -26.5473 -1.90423 88.8435
lradius 24.3598 0 0
lwrist -31.3246 0 0
lhand -28.2839 30.0546 0
lfingers 7.12502 0 0
lthumb -1.66012 60.0279 0
rclavicle 7.98943e-15 1.04319e-15 0
rhumerus -32.2896 1.99607 -79.8922
rradius 30.4937 0 0
rwrist 3.11751 0 0
rhand -19.8014 -27.0348 0
rfingers 7.12502 0 0
rthumb 6.53158 -56.9141 0
209
root -2.90167 16.2977 -36.1085 3.75771 0.70712 -2.96092
lfemur -23.9311 6.72074 -8.12616
ltibia 48.7364 0 0
lfoot -23.8465 0.409206 0
ltoes -9.85348 0 0
rfemur -23.824 -7.57348 14.7028
rtibia 50.751 0 0
rfoot -27.6578 1.96707 0
rtoes -8.60123 0 0
lowerback 7.30472 1.96499 -1.631
upperback -3.74795 2.5616 1.31725
thorax -8.19205 1.38196 1.93888
lowerneck -3.42433 -3.91606 -6.54424
upperneck 6.86722 -5.28323 5.98817
head 3.23735 -2.6022 2.94644
lclavicle 8.00971e-15 -8.38386e-16 0
lhumerus -26.5389 -1.91961 88.8631
lradius 24.3678 0 0
lwrist -31.3107 0 0
lhand -28.2862 30.0521 0
lfingers 7.12502 0 0
lthumb -1.66238 60.0254 0
rclavicle 8.00971e-15 -8.38386e-16 0
rhumerus -32.2904 1.99223 -79.8832
rradius 30.4878 0 0
rwrist 3.1204 0 0
rhand -19.7988 -27.0383 0
rfingers 7.12502 0 0
rthumb 6.5341 -56.9175 0
210
root -2.90255 16.2954 -36.1073 3.73487 0.722323 -2.95768
lfemur -23.9452 6.73964 -8.12193
ltibia 48.8126 0 0
lfoot -23.8895 0.399987 0
ltoes -9.88014 0 0
rfemur -23.8269 -7.59445 14.6965
rtibia 50.8278 0 0
rfoot -27.702 1.94818 0
rtoes -8.64303 0 0
lowerback 7.31056 1.96321 -1.63102
upperback -3.73749 2.55892 1.31561
thorax -8.18394 1.38043 1.93753
lowerneck -3.42246 -3.92015 -6.5463
upperneck 6.85691 -5.28899 5.99704
head 3.23434 -2.60485 2.94962
lclavicle 7.89109e-15 -2.8085e-15 0
lhumerus -26.5283 -1.93488 88.8843
lradius 24.3764 0 0
lwrist -31.2954 0 0
lhand -28.288 30.0499 0
lfingers 7.12502 0 0
lthumb -1.66415 60.0232 0
rclavicle 7.89109e-15 -2.8085e-15 0
rhumerus -32.2891 1.98822 -79.8744
rradius 30.4818 0 0
rwrist 3.12427 0 0
rhand -19.7961 -27.0422 0
rfingers 7.12502 0 0
rthumb 6.53665 -56.9213 0
211
root -2.90343 16.2931 -36.1061 3.70836 0.741095 -2.95548
lfemur -23.9652 6.76329 -8.11434
ltibia 48.9082 0 0
lfoot -23.9431 0.388808 0
ltoes -9.91177 0 0
rfemur -23.8325 -7.62169 14.6913
rtibia 50.9227 0 0
rfoot -27.7564 1.92794 0
rtoes -8.68918 0 0
lowerback 7.31817 1.96043 -1.6306
upperback -3.72515 2.55495 1.3143
thorax -8.17475 1.37822 1.93645
lowerneck -3.4221 -3.92503 -6.54924
upperneck 6.84681 -5.29579 6.00728
head 3.23186 -2.60798 2.95339
lclavicle 7.61206e-15 -4.87022e-15 0
lhumerus -26.5151 -1.95002 88.9072
lradius 24.3857 0 0
lwrist -31.2785 0 0
lhand -28.2893 30.048 0
lfingers 7.12502 0 0
lthumb -1.66536 60.0213 0
rclavicle 7.61206e-15 -4.87022e-15 0
rhumerus -32.2852 1.98419 -79.8659
rradius 30.476 0 0
rwrist 3.12908 0 0
rhand -19.7934 -27.0466 0
rfingers 7.12502 0 0
rthumb 6.53927 -56.9257 0
